# xmcd CD database file
#
# Track frame offsets:
#	150
#	27192
#	49702
#	69952
#	92450
#	116535
#	135357
#	169702
#	189915
#	208107
#	226867
#	252770
#
# Disc length: 3605 seconds
#
# Revision: 0
# Processed by: cddbd v1.5.1PL0 Copyright (c) Steve Scherf et al.
# Submitted via: CDex 1.51
#
DISCID=8e0e130c
DTITLE=Nature Quest - Loon Song
DYEAR=1994
DGENRE=New Age
TTITLE0=Trk 01 - Loon Song
TTITLE1=Trk 02 - Loon Song
TTITLE2=Trk 03 - Loon Song
TTITLE3=Trk 04 - Loon Song
TTITLE4=Trk 05 - Loon Song
TTITLE5=Trk 06 - Loon Song
TTITLE6=Trk 07 - Loon Song
TTITLE7=Trk 08 - Loon Song
TTITLE8=Trk 09 - Loon Song
TTITLE9=Trk 11 - Loon Song
TTITLE10=Trk 12 - Loon Song
TTITLE11=Trk 13 - Loon Song
EXTD=YEAR: 1994
EXTT0=
EXTT1=
EXTT2=
EXTT3=
EXTT4=
EXTT5=
EXTT6=
EXTT7=
EXTT8=
EXTT9=
EXTT10=
EXTT11=
PLAYORDER=
